<mxfile host="app.diagrams.net" modified="2024-04-24T16:43:27.423Z" agent="Mozilla/5.0 (Windows NT 10.0; Win64; x64; rv:125.0) Gecko/20100101 Firefox/125.0" etag="z2sILIlJyhtOQiPh3Y4A" version="24.3.0" type="device">
  <diagram id="C5RBs43oDa-KdzZeNtuy" name="Page-1">
    <mxGraphModel dx="1257" dy="671" grid="1" gridSize="10" guides="1" tooltips="1" connect="1" arrows="1" fold="1" page="1" pageScale="1" pageWidth="827" pageHeight="1169" math="0" shadow="0">
      <root>
        <mxCell id="WIyWlLk6GJQsqaUBKTNV-0" />
        <mxCell id="WIyWlLk6GJQsqaUBKTNV-1" parent="WIyWlLk6GJQsqaUBKTNV-0" />
        <mxCell id="bcu0WoXkM6soCR6KGOiU-6" style="edgeStyle=orthogonalEdgeStyle;rounded=0;orthogonalLoop=1;jettySize=auto;html=1;" edge="1" parent="WIyWlLk6GJQsqaUBKTNV-1" source="bcu0WoXkM6soCR6KGOiU-0" target="bcu0WoXkM6soCR6KGOiU-5">
          <mxGeometry relative="1" as="geometry" />
        </mxCell>
        <mxCell id="bcu0WoXkM6soCR6KGOiU-0" value="pageSize = 930, i = 0, text, pages" style="rounded=0;whiteSpace=wrap;html=1;" vertex="1" parent="WIyWlLk6GJQsqaUBKTNV-1">
          <mxGeometry x="210" y="80" width="120" height="60" as="geometry" />
        </mxCell>
        <mxCell id="bcu0WoXkM6soCR6KGOiU-3" style="edgeStyle=orthogonalEdgeStyle;rounded=0;orthogonalLoop=1;jettySize=auto;html=1;" edge="1" parent="WIyWlLk6GJQsqaUBKTNV-1" source="bcu0WoXkM6soCR6KGOiU-1" target="bcu0WoXkM6soCR6KGOiU-0">
          <mxGeometry relative="1" as="geometry" />
        </mxCell>
        <mxCell id="bcu0WoXkM6soCR6KGOiU-1" value="Начало" style="rounded=1;whiteSpace=wrap;html=1;" vertex="1" parent="WIyWlLk6GJQsqaUBKTNV-1">
          <mxGeometry x="210" width="120" height="40" as="geometry" />
        </mxCell>
        <mxCell id="bcu0WoXkM6soCR6KGOiU-9" style="edgeStyle=orthogonalEdgeStyle;rounded=0;orthogonalLoop=1;jettySize=auto;html=1;" edge="1" parent="WIyWlLk6GJQsqaUBKTNV-1" source="bcu0WoXkM6soCR6KGOiU-5" target="bcu0WoXkM6soCR6KGOiU-7">
          <mxGeometry relative="1" as="geometry" />
        </mxCell>
        <mxCell id="bcu0WoXkM6soCR6KGOiU-16" style="edgeStyle=orthogonalEdgeStyle;rounded=0;orthogonalLoop=1;jettySize=auto;html=1;entryX=1;entryY=0.5;entryDx=0;entryDy=0;" edge="1" parent="WIyWlLk6GJQsqaUBKTNV-1" source="bcu0WoXkM6soCR6KGOiU-5" target="bcu0WoXkM6soCR6KGOiU-14">
          <mxGeometry relative="1" as="geometry">
            <Array as="points">
              <mxPoint x="420" y="200" />
              <mxPoint x="420" y="585" />
            </Array>
          </mxGeometry>
        </mxCell>
        <mxCell id="bcu0WoXkM6soCR6KGOiU-5" value="i &amp;lt; text.length " style="rhombus;whiteSpace=wrap;html=1;" vertex="1" parent="WIyWlLk6GJQsqaUBKTNV-1">
          <mxGeometry x="200" y="160" width="140" height="80" as="geometry" />
        </mxCell>
        <mxCell id="bcu0WoXkM6soCR6KGOiU-12" style="edgeStyle=orthogonalEdgeStyle;rounded=0;orthogonalLoop=1;jettySize=auto;html=1;" edge="1" parent="WIyWlLk6GJQsqaUBKTNV-1" source="bcu0WoXkM6soCR6KGOiU-7" target="bcu0WoXkM6soCR6KGOiU-10">
          <mxGeometry relative="1" as="geometry" />
        </mxCell>
        <mxCell id="bcu0WoXkM6soCR6KGOiU-7" value="page = text.substring(i, i+pageSize)" style="rounded=0;whiteSpace=wrap;html=1;" vertex="1" parent="WIyWlLk6GJQsqaUBKTNV-1">
          <mxGeometry x="210" y="270" width="120" height="60" as="geometry" />
        </mxCell>
        <mxCell id="bcu0WoXkM6soCR6KGOiU-13" style="edgeStyle=orthogonalEdgeStyle;rounded=0;orthogonalLoop=1;jettySize=auto;html=1;" edge="1" parent="WIyWlLk6GJQsqaUBKTNV-1" source="bcu0WoXkM6soCR6KGOiU-10" target="bcu0WoXkM6soCR6KGOiU-11">
          <mxGeometry relative="1" as="geometry" />
        </mxCell>
        <mxCell id="bcu0WoXkM6soCR6KGOiU-10" value="pages.push(page)" style="rounded=0;whiteSpace=wrap;html=1;" vertex="1" parent="WIyWlLk6GJQsqaUBKTNV-1">
          <mxGeometry x="210" y="360" width="120" height="60" as="geometry" />
        </mxCell>
        <mxCell id="bcu0WoXkM6soCR6KGOiU-15" style="edgeStyle=orthogonalEdgeStyle;rounded=0;orthogonalLoop=1;jettySize=auto;html=1;entryX=0;entryY=0.5;entryDx=0;entryDy=0;" edge="1" parent="WIyWlLk6GJQsqaUBKTNV-1" source="bcu0WoXkM6soCR6KGOiU-11" target="bcu0WoXkM6soCR6KGOiU-5">
          <mxGeometry relative="1" as="geometry">
            <Array as="points">
              <mxPoint x="120" y="480" />
              <mxPoint x="120" y="200" />
            </Array>
          </mxGeometry>
        </mxCell>
        <mxCell id="bcu0WoXkM6soCR6KGOiU-11" value="i += pageSize" style="rounded=0;whiteSpace=wrap;html=1;" vertex="1" parent="WIyWlLk6GJQsqaUBKTNV-1">
          <mxGeometry x="210" y="450" width="120" height="60" as="geometry" />
        </mxCell>
        <mxCell id="bcu0WoXkM6soCR6KGOiU-14" value="bookPages = pages" style="rounded=0;whiteSpace=wrap;html=1;" vertex="1" parent="WIyWlLk6GJQsqaUBKTNV-1">
          <mxGeometry x="210" y="555" width="120" height="60" as="geometry" />
        </mxCell>
        <mxCell id="bcu0WoXkM6soCR6KGOiU-17" value="нет" style="text;html=1;align=center;verticalAlign=middle;whiteSpace=wrap;rounded=0;" vertex="1" parent="WIyWlLk6GJQsqaUBKTNV-1">
          <mxGeometry x="354" y="170" width="60" height="30" as="geometry" />
        </mxCell>
        <mxCell id="bcu0WoXkM6soCR6KGOiU-18" value="да" style="text;html=1;align=center;verticalAlign=middle;whiteSpace=wrap;rounded=0;" vertex="1" parent="WIyWlLk6GJQsqaUBKTNV-1">
          <mxGeometry x="213" y="238" width="60" height="30" as="geometry" />
        </mxCell>
      </root>
    </mxGraphModel>
  </diagram>
</mxfile>
